<?xml version="1.0" standalone="no"?>
<!DOCTYPE svg PUBLIC "-//W3C//DTD SVG 20010904//EN"
 "http://www.w3.org/TR/2001/REC-SVG-20010904/DTD/svg10.dtd">
<svg version="1.0" xmlns="http://www.w3.org/2000/svg"
 width="900.000000pt" height="900.000000pt" viewBox="0 0 900.000000 900.000000"
 preserveAspectRatio="xMidYMid meet">
<metadata>
Created by potrace 1.10, written by Peter Selinger 2001-2011
</metadata>
<g transform="translate(0.000000,900.000000) scale(0.100000,-0.100000)"
fill="#000000" stroke="none">
<path d="M4390 6334 c-151 -22 -321 -62 -388 -90 -18 -8 -39 -14 -47 -14 -7 0
-26 -6 -42 -14 -15 -8 -64 -29 -108 -47 -44 -18 -113 -52 -153 -76 -41 -24
-75 -43 -77 -43 -2 0 -26 -14 -52 -32 -263 -175 -488 -412 -660 -694 -31 -50
-143 -289 -143 -304 0 -5 -6 -24 -14 -42 -26 -63 -69 -229 -87 -338 -20 -123
-23 -474 -5 -564 9 -41 16 -94 16 -116 0 -23 5 -50 11 -61 6 -11 14 -41 19
-67 4 -26 14 -63 20 -82 25 -68 40 -110 56 -152 22 -56 110 -235 134 -273 11
-16 23 -37 27 -45 10 -20 66 -104 74 -110 3 -3 21 -27 39 -55 49 -72 301 -322
395 -391 140 -104 168 -121 315 -193 148 -73 162 -80 193 -87 15 -3 30 -10 33
-15 3 -5 14 -9 26 -9 11 0 34 -6 51 -14 66 -28 225 -61 367 -77 55 -6 183 -9
305 -5 197 5 265 13 405 47 25 6 61 15 80 19 33 8 52 14 140 45 112 41 267
113 350 163 19 12 44 26 55 32 21 11 75 49 193 140 98 75 261 243 355 367 42
56 77 105 77 108 0 3 12 24 27 48 44 67 97 170 137 262 7 17 21 47 30 68 9 21
16 44 16 52 0 8 6 29 14 47 33 78 72 257 81 363 3 39 10 115 15 170 8 79 7
131 -5 245 -17 147 -38 270 -57 325 -5 17 -14 46 -18 65 -4 19 -18 60 -30 90
-12 30 -25 66 -29 80 -9 28 -89 191 -128 260 -191 340 -522 645 -888 819 -38
19 -78 38 -87 42 -42 21 -306 109 -327 109 -8 0 -37 6 -65 14 -147 42 -465 56
-646 30z m291 -790 l24 -26 0 -1218 0 -1219 -30 -31 c-26 -27 -35 -31 -74 -28
-37 3 -49 9 -75 41 l-31 39 -2 1171 c-2 645 -1 1186 2 1204 3 17 19 45 34 62
25 27 36 31 78 31 40 0 54 -5 74 -26z m-981 -558 c30 -7 71 -16 90 -20 50 -9
179 -76 250 -131 61 -47 150 -156 187 -230 26 -50 46 -103 67 -176 21 -71 21
-248 1 -304 -8 -22 -15 -48 -15 -58 0 -11 -6 -31 -13 -45 -8 -15 -22 -45 -33
-67 -55 -117 -202 -265 -319 -319 -22 -11 -49 -23 -60 -29 -10 -5 -53 -18 -95
-28 -64 -16 -117 -19 -376 -19 l-302 0 -31 35 -31 36 0 655 0 656 29 29 29 29
284 0 c208 0 298 -4 338 -14z m2087 -6 c173 -46 295 -129 403 -275 44 -60 100
-165 100 -188 0 -8 7 -28 16 -45 12 -25 16 -66 16 -186 0 -169 -13 -230 -75
-346 -72 -135 -206 -269 -317 -316 -8 -3 -28 -12 -45 -19 -80 -35 -139 -45
-274 -45 -150 0 -212 14 -325 71 -80 41 -89 48 -170 127 -169 166 -234 354
-208 609 5 54 15 114 22 133 71 196 189 335 359 423 50 26 99 47 108 47 10 0
36 7 58 15 60 21 243 19 332 -5z"/>
<path d="M3387 4634 c-11 -11 -8 -687 3 -704 14 -22 282 -18 316 5 13 8 30 15
37 15 22 0 140 114 158 151 49 103 61 191 34 256 -8 19 -15 42 -15 50 0 29
-72 123 -123 160 -81 59 -107 66 -262 70 -78 2 -144 1 -148 -3z"/>
<path d="M5520 4625 c-14 -8 -33 -14 -43 -15 -45 -1 -177 -129 -177 -173 0 -7
-7 -22 -15 -33 -10 -14 -14 -47 -15 -122 0 -95 2 -108 31 -165 40 -81 90 -131
168 -168 59 -28 71 -30 150 -26 132 6 203 42 277 141 44 59 57 102 61 200 5
99 -8 146 -58 220 -43 64 -113 119 -167 131 -17 3 -34 11 -37 16 -10 15 -147
10 -175 -6z"/>
</g>
</svg>
